<mxfile host="app.diagrams.net" agent="Mozilla/5.0 (Windows NT 10.0; Win64; x64) AppleWebKit/537.36 (KHTML, like Gecko) Chrome/130.0.0.0 Safari/537.36" version="24.7.17">
  <diagram name="Page-1" id="Yr_DHaK4wEueYJacRZXj">
    <mxGraphModel grid="1" page="1" gridSize="10" guides="1" tooltips="1" connect="1" arrows="1" fold="1" pageScale="1" pageWidth="827" pageHeight="1169" math="1" shadow="0">
      <root>
        <mxCell id="0" />
        <mxCell id="1" parent="0" />
        <mxCell id="IeOK_5gqsgPBjZisnjF1-62" value="" style="shape=cube;whiteSpace=wrap;html=1;boundedLbl=1;backgroundOutline=1;darkOpacity=0.05;darkOpacity2=0.1;direction=south;strokeColor=#CC0000;size=20;" vertex="1" parent="1">
          <mxGeometry x="1430" y="-90" width="90" height="90" as="geometry" />
        </mxCell>
        <mxCell id="I3avih-Nlc-Vhzq-aTG8-6" value="" style="sketch=0;outlineConnect=0;fontColor=#232F3E;gradientColor=none;fillColor=#232F3D;strokeColor=none;dashed=0;verticalLabelPosition=bottom;verticalAlign=top;align=center;html=1;fontSize=12;fontStyle=0;aspect=fixed;pointerEvents=1;shape=mxgraph.aws4.camera2;" vertex="1" parent="1">
          <mxGeometry x="40" y="-80" width="120" height="95.38" as="geometry" />
        </mxCell>
        <mxCell id="I3avih-Nlc-Vhzq-aTG8-7" value="" style="group" connectable="0" vertex="1" parent="1">
          <mxGeometry x="340" y="-110" width="195" height="170" as="geometry" />
        </mxCell>
        <mxCell id="I3avih-Nlc-Vhzq-aTG8-1" value="" style="shape=cube;whiteSpace=wrap;html=1;boundedLbl=1;backgroundOutline=1;darkOpacity=0.05;darkOpacity2=0.1;direction=south;size=20;" vertex="1" parent="I3avih-Nlc-Vhzq-aTG8-7">
          <mxGeometry x="80" width="90" height="90" as="geometry" />
        </mxCell>
        <mxCell id="I3avih-Nlc-Vhzq-aTG8-2" value="" style="shape=cube;whiteSpace=wrap;html=1;boundedLbl=1;backgroundOutline=1;darkOpacity=0.05;darkOpacity2=0.1;direction=south;size=20;" vertex="1" parent="I3avih-Nlc-Vhzq-aTG8-7">
          <mxGeometry x="60" y="20" width="90" height="90" as="geometry" />
        </mxCell>
        <mxCell id="I3avih-Nlc-Vhzq-aTG8-3" value="" style="shape=cube;whiteSpace=wrap;html=1;boundedLbl=1;backgroundOutline=1;darkOpacity=0.05;darkOpacity2=0.1;direction=south;size=20;" vertex="1" parent="I3avih-Nlc-Vhzq-aTG8-7">
          <mxGeometry x="40" y="40" width="90" height="90" as="geometry" />
        </mxCell>
        <mxCell id="I3avih-Nlc-Vhzq-aTG8-4" value="" style="shape=cube;whiteSpace=wrap;html=1;boundedLbl=1;backgroundOutline=1;darkOpacity=0.05;darkOpacity2=0.1;direction=south;size=20;" vertex="1" parent="I3avih-Nlc-Vhzq-aTG8-7">
          <mxGeometry x="20" y="60" width="90" height="90" as="geometry" />
        </mxCell>
        <mxCell id="I3avih-Nlc-Vhzq-aTG8-5" value="char" style="shape=cube;whiteSpace=wrap;html=1;boundedLbl=1;backgroundOutline=1;darkOpacity=0.05;darkOpacity2=0.1;direction=south;size=20;" vertex="1" parent="I3avih-Nlc-Vhzq-aTG8-7">
          <mxGeometry y="80" width="90" height="90" as="geometry" />
        </mxCell>
        <mxCell id="I3avih-Nlc-Vhzq-aTG8-34" value="" style="endArrow=classic;startArrow=classic;html=1;rounded=0;" edge="1" parent="I3avih-Nlc-Vhzq-aTG8-7">
          <mxGeometry width="50" height="50" relative="1" as="geometry">
            <mxPoint x="34" y="56" as="sourcePoint" />
            <mxPoint x="54" y="36" as="targetPoint" />
          </mxGeometry>
        </mxCell>
        <mxCell id="I3avih-Nlc-Vhzq-aTG8-35" value="Batch size" style="text;html=1;align=center;verticalAlign=middle;resizable=0;points=[];autosize=1;strokeColor=none;fillColor=none;rotation=-45;" vertex="1" parent="I3avih-Nlc-Vhzq-aTG8-7">
          <mxGeometry x="-10" y="20" width="80" height="30" as="geometry" />
        </mxCell>
        <mxCell id="I3avih-Nlc-Vhzq-aTG8-36" value="" style="endArrow=classic;startArrow=classic;html=1;rounded=0;" edge="1" parent="I3avih-Nlc-Vhzq-aTG8-7">
          <mxGeometry width="50" height="50" relative="1" as="geometry">
            <mxPoint x="90" y="170" as="sourcePoint" />
            <mxPoint x="180" y="80" as="targetPoint" />
          </mxGeometry>
        </mxCell>
        <mxCell id="I3avih-Nlc-Vhzq-aTG8-37" value="Input queue size" style="text;html=1;align=center;verticalAlign=middle;resizable=0;points=[];autosize=1;strokeColor=none;fillColor=none;rotation=-45;" vertex="1" parent="I3avih-Nlc-Vhzq-aTG8-7">
          <mxGeometry x="90" y="120" width="110" height="30" as="geometry" />
        </mxCell>
        <mxCell id="I3avih-Nlc-Vhzq-aTG8-9" value="" style="shape=flexArrow;endArrow=classic;html=1;rounded=0;" edge="1" parent="1">
          <mxGeometry width="50" height="50" relative="1" as="geometry">
            <mxPoint x="180" y="-20" as="sourcePoint" />
            <mxPoint x="330" y="-20" as="targetPoint" />
          </mxGeometry>
        </mxCell>
        <mxCell id="I3avih-Nlc-Vhzq-aTG8-10" value="char" style="shape=cube;whiteSpace=wrap;html=1;boundedLbl=1;backgroundOutline=1;darkOpacity=0.05;darkOpacity2=0.1;direction=south;size=80;" vertex="1" parent="1">
          <mxGeometry x="430" y="-406" width="150" height="150" as="geometry" />
        </mxCell>
        <mxCell id="I3avih-Nlc-Vhzq-aTG8-11" value="" style="shape=flexArrow;endArrow=classic;html=1;rounded=0;" edge="1" parent="1">
          <mxGeometry width="50" height="50" relative="1" as="geometry">
            <mxPoint x="480" y="-131" as="sourcePoint" />
            <mxPoint x="480" y="-241" as="targetPoint" />
          </mxGeometry>
        </mxCell>
        <mxCell id="I3avih-Nlc-Vhzq-aTG8-12" value="" style="shape=flexArrow;endArrow=classic;html=1;rounded=0;" edge="1" parent="1">
          <mxGeometry width="50" height="50" relative="1" as="geometry">
            <mxPoint x="480" y="70" as="sourcePoint" />
            <mxPoint x="480" y="175.38" as="targetPoint" />
          </mxGeometry>
        </mxCell>
        <mxCell id="I3avih-Nlc-Vhzq-aTG8-13" value="char" style="shape=cube;whiteSpace=wrap;html=1;boundedLbl=1;backgroundOutline=1;darkOpacity=0.05;darkOpacity2=0.1;direction=south;size=80;" vertex="1" parent="1">
          <mxGeometry x="430" y="180" width="150" height="150" as="geometry" />
        </mxCell>
        <mxCell id="I3avih-Nlc-Vhzq-aTG8-14" value="" style="shape=flexArrow;endArrow=classic;html=1;rounded=0;strokeColor=#CC0000;" edge="1" parent="1">
          <mxGeometry width="50" height="50" relative="1" as="geometry">
            <mxPoint x="550" y="-20" as="sourcePoint" />
            <mxPoint x="670" y="-20" as="targetPoint" />
          </mxGeometry>
        </mxCell>
        <mxCell id="I3avih-Nlc-Vhzq-aTG8-15" value="&lt;font color=&quot;#cc0000&quot;&gt;complex&lt;/font&gt;" style="shape=cube;whiteSpace=wrap;html=1;boundedLbl=1;backgroundOutline=1;darkOpacity=0.05;darkOpacity2=0.1;direction=south;size=80;strokeColor=#CC0000;" vertex="1" parent="1">
          <mxGeometry x="680" y="-90" width="150" height="150" as="geometry" />
        </mxCell>
        <mxCell id="I3avih-Nlc-Vhzq-aTG8-17" value="" style="curved=1;endArrow=classic;html=1;rounded=0;" edge="1" parent="1">
          <mxGeometry width="50" height="50" relative="1" as="geometry">
            <mxPoint x="570" y="20" as="sourcePoint" />
            <mxPoint x="170" y="10" as="targetPoint" />
            <Array as="points">
              <mxPoint x="730" y="60" />
              <mxPoint x="670" y="650" />
              <mxPoint x="160" y="510" />
              <mxPoint x="160" y="90" />
            </Array>
          </mxGeometry>
        </mxCell>
        <mxCell id="I3avih-Nlc-Vhzq-aTG8-18" value="" style="shape=flexArrow;endArrow=classic;html=1;rounded=0;strokeColor=#CC0000;" edge="1" parent="1">
          <mxGeometry width="50" height="50" relative="1" as="geometry">
            <mxPoint x="860" y="-25.5" as="sourcePoint" />
            <mxPoint x="1010" y="-25.5" as="targetPoint" />
          </mxGeometry>
        </mxCell>
        <mxCell id="I3avih-Nlc-Vhzq-aTG8-19" value="&lt;font color=&quot;#cc0000&quot;&gt;char&lt;/font&gt;" style="shape=cube;whiteSpace=wrap;html=1;boundedLbl=1;backgroundOutline=1;darkOpacity=0.05;darkOpacity2=0.1;direction=south;size=80;strokeColor=#CC0000;" vertex="1" parent="1">
          <mxGeometry x="1030" y="-90" width="150" height="150" as="geometry" />
        </mxCell>
        <mxCell id="I3avih-Nlc-Vhzq-aTG8-20" value="" style="shape=flexArrow;endArrow=classic;html=1;rounded=0;strokeColor=#CC0000;" edge="1" parent="1">
          <mxGeometry width="50" height="50" relative="1" as="geometry">
            <mxPoint x="1200" y="-25.5" as="sourcePoint" />
            <mxPoint x="1350" y="-25.5" as="targetPoint" />
          </mxGeometry>
        </mxCell>
        <mxCell id="I3avih-Nlc-Vhzq-aTG8-22" value="" style="shape=flexArrow;endArrow=classic;html=1;rounded=0;strokeColor=#000000;fillColor=#CCE5FF;" edge="1" parent="1">
          <mxGeometry width="50" height="50" relative="1" as="geometry">
            <mxPoint x="1540" y="-25.71" as="sourcePoint" />
            <mxPoint x="1770" y="-26" as="targetPoint" />
          </mxGeometry>
        </mxCell>
        <mxCell id="I3avih-Nlc-Vhzq-aTG8-24" value="float" style="whiteSpace=wrap;html=1;aspect=fixed;" vertex="1" parent="1">
          <mxGeometry x="1781" y="-64.62" width="80" height="80" as="geometry" />
        </mxCell>
        <mxCell id="I3avih-Nlc-Vhzq-aTG8-25" value="" style="shape=flexArrow;endArrow=classic;html=1;rounded=0;" edge="1" parent="1">
          <mxGeometry width="50" height="50" relative="1" as="geometry">
            <mxPoint x="1820.5" y="-80" as="sourcePoint" />
            <mxPoint x="1820.5" y="-220" as="targetPoint" />
          </mxGeometry>
        </mxCell>
        <mxCell id="I3avih-Nlc-Vhzq-aTG8-26" value="char" style="shape=cube;whiteSpace=wrap;html=1;boundedLbl=1;backgroundOutline=1;darkOpacity=0.05;darkOpacity2=0.1;direction=south;size=80;" vertex="1" parent="1">
          <mxGeometry x="1751" y="-380" width="150" height="150" as="geometry" />
        </mxCell>
        <mxCell id="I3avih-Nlc-Vhzq-aTG8-27" value="" style="shape=flexArrow;endArrow=classic;html=1;rounded=0;" edge="1" parent="1">
          <mxGeometry width="50" height="50" relative="1" as="geometry">
            <mxPoint x="1921" y="-300" as="sourcePoint" />
            <mxPoint x="1881" y="-60" as="targetPoint" />
            <Array as="points">
              <mxPoint x="1971" y="-300" />
              <mxPoint x="1971" y="-60" />
            </Array>
          </mxGeometry>
        </mxCell>
        <mxCell id="I3avih-Nlc-Vhzq-aTG8-28" value="" style="shape=flexArrow;endArrow=classic;html=1;rounded=0;" edge="1" parent="1">
          <mxGeometry width="50" height="50" relative="1" as="geometry">
            <mxPoint x="1881" y="-25.33" as="sourcePoint" />
            <mxPoint x="2031" y="-25.33" as="targetPoint" />
          </mxGeometry>
        </mxCell>
        <mxCell id="I3avih-Nlc-Vhzq-aTG8-29" value="ushort" style="whiteSpace=wrap;html=1;aspect=fixed;" vertex="1" parent="1">
          <mxGeometry x="2051" y="-65" width="80" height="80" as="geometry" />
        </mxCell>
        <mxCell id="I3avih-Nlc-Vhzq-aTG8-31" value="" style="shape=flexArrow;endArrow=classic;html=1;rounded=0;" edge="1" parent="1">
          <mxGeometry width="50" height="50" relative="1" as="geometry">
            <mxPoint x="2091" y="-81" as="sourcePoint" />
            <mxPoint x="2091" y="-221" as="targetPoint" />
          </mxGeometry>
        </mxCell>
        <mxCell id="I3avih-Nlc-Vhzq-aTG8-32" value="" style="shape=flexArrow;endArrow=classic;html=1;rounded=0;" edge="1" parent="1">
          <mxGeometry width="50" height="50" relative="1" as="geometry">
            <mxPoint x="2091" y="60" as="sourcePoint" />
            <mxPoint x="2091" y="190" as="targetPoint" />
          </mxGeometry>
        </mxCell>
        <mxCell id="I3avih-Nlc-Vhzq-aTG8-38" value="&lt;b&gt;&lt;font style=&quot;font-size: 14px;&quot;&gt;input_queue&lt;/font&gt;&lt;/b&gt;" style="text;html=1;align=center;verticalAlign=middle;resizable=0;points=[];autosize=1;strokeColor=none;fillColor=none;" vertex="1" parent="1">
          <mxGeometry x="290" y="-140" width="110" height="30" as="geometry" />
        </mxCell>
        <mxCell id="I3avih-Nlc-Vhzq-aTG8-39" value="&lt;b&gt;&lt;font style=&quot;font-size: 14px;&quot;&gt;output_queue&lt;/font&gt;&lt;/b&gt;" style="text;html=1;align=center;verticalAlign=middle;resizable=0;points=[];autosize=1;strokeColor=none;fillColor=none;" vertex="1" parent="1">
          <mxGeometry x="330" y="-412" width="120" height="30" as="geometry" />
        </mxCell>
        <mxCell id="I3avih-Nlc-Vhzq-aTG8-40" value="&lt;b&gt;&lt;font style=&quot;font-size: 14px;&quot;&gt;record_queue&lt;/font&gt;&lt;/b&gt;" style="text;html=1;align=center;verticalAlign=middle;resizable=0;points=[];autosize=1;strokeColor=none;fillColor=none;" vertex="1" parent="1">
          <mxGeometry x="310" y="200" width="120" height="30" as="geometry" />
        </mxCell>
        <mxCell id="I3avih-Nlc-Vhzq-aTG8-41" value="&lt;b&gt;&lt;font color=&quot;#cc0000&quot; style=&quot;font-size: 14px;&quot;&gt;gpu_spatial_transformation_buffer&lt;/font&gt;&lt;/b&gt;" style="text;html=1;align=center;verticalAlign=middle;resizable=0;points=[];autosize=1;strokeColor=none;fillColor=none;" vertex="1" parent="1">
          <mxGeometry x="620" y="-132" width="260" height="30" as="geometry" />
        </mxCell>
        <mxCell id="I3avih-Nlc-Vhzq-aTG8-47" value="&lt;font color=&quot;#cc0000&quot; style=&quot;font-size: 24px;&quot;&gt;Complex domain&lt;/font&gt;" style="text;html=1;align=center;verticalAlign=middle;resizable=0;points=[];autosize=1;strokeColor=none;fillColor=none;" vertex="1" parent="1">
          <mxGeometry x="1020" y="-230" width="200" height="40" as="geometry" />
        </mxCell>
        <mxCell id="I3avih-Nlc-Vhzq-aTG8-48" value="&lt;b&gt;&lt;font color=&quot;#cc0000&quot; style=&quot;font-size: 14px;&quot;&gt;gpu_time_transformation_queue&lt;/font&gt;&lt;/b&gt;" style="text;html=1;align=center;verticalAlign=middle;resizable=0;points=[];autosize=1;strokeColor=none;fillColor=none;" vertex="1" parent="1">
          <mxGeometry x="1010" y="-132" width="240" height="30" as="geometry" />
        </mxCell>
        <mxCell id="I3avih-Nlc-Vhzq-aTG8-50" value="&lt;span style=&quot;font-family: -apple-system, BlinkMacSystemFont, &amp;quot;Helvetica Neue&amp;quot;, Helvetica, Arial, sans-serif; font-style: normal; font-variant-ligatures: normal; font-variant-caps: normal; letter-spacing: normal; orphans: 2; text-align: center; text-indent: 0px; text-transform: none; widows: 2; word-spacing: 0px; -webkit-text-stroke-width: 0px; white-space: normal; text-decoration-thickness: initial; text-decoration-style: initial; text-decoration-color: initial; float: none; display: inline !important;&quot;&gt;&lt;font color=&quot;#cc0000&quot; style=&quot;font-size: 48px;&quot;&gt;&lt;b&gt;ℂ&lt;/b&gt;&lt;/font&gt;&lt;/span&gt;" style="text;whiteSpace=wrap;html=1;" vertex="1" parent="1">
          <mxGeometry x="1230" y="-250" width="50" height="60" as="geometry" />
        </mxCell>
        <mxCell id="I3avih-Nlc-Vhzq-aTG8-51" value="&lt;b&gt;&lt;font color=&quot;#cc0000&quot; style=&quot;font-size: 14px;&quot;&gt;gpu_p_acc_buffer&lt;/font&gt;&lt;/b&gt;" style="text;html=1;align=center;verticalAlign=middle;resizable=0;points=[];autosize=1;strokeColor=none;fillColor=none;" vertex="1" parent="1">
          <mxGeometry x="1375" y="-132" width="140" height="30" as="geometry" />
        </mxCell>
        <mxCell id="I3avih-Nlc-Vhzq-aTG8-53" value="" style="sketch=0;pointerEvents=1;shadow=0;dashed=0;html=1;strokeColor=none;fillColor=#505050;labelPosition=center;verticalLabelPosition=bottom;verticalAlign=top;outlineConnect=0;align=center;shape=mxgraph.office.devices.hard_disk;" vertex="1" parent="1">
          <mxGeometry x="460" y="460" width="40" height="54" as="geometry" />
        </mxCell>
        <mxCell id="I3avih-Nlc-Vhzq-aTG8-54" value="" style="verticalLabelPosition=bottom;html=1;verticalAlign=top;align=center;strokeColor=#000000;fillColor=#000000;shape=mxgraph.azure.computer;pointerEvents=1;" vertex="1" parent="1">
          <mxGeometry x="455" y="-605" width="50" height="45" as="geometry" />
        </mxCell>
        <mxCell id="IeOK_5gqsgPBjZisnjF1-1" value="" style="shape=flexArrow;endArrow=classic;html=1;rounded=0;" edge="1" parent="1">
          <mxGeometry width="50" height="50" relative="1" as="geometry">
            <mxPoint x="479.75" y="343" as="sourcePoint" />
            <mxPoint x="479.75" y="448.38" as="targetPoint" />
          </mxGeometry>
        </mxCell>
        <mxCell id="IeOK_5gqsgPBjZisnjF1-2" value="" style="shape=flexArrow;endArrow=classic;html=1;rounded=0;" edge="1" parent="1">
          <mxGeometry width="50" height="50" relative="1" as="geometry">
            <mxPoint x="479.38" y="-428" as="sourcePoint" />
            <mxPoint x="479.38" y="-538" as="targetPoint" />
          </mxGeometry>
        </mxCell>
        <mxCell id="IeOK_5gqsgPBjZisnjF1-3" value="&lt;b&gt;&lt;font style=&quot;font-size: 14px;&quot;&gt;display&lt;/font&gt;&lt;/b&gt;" style="text;html=1;align=center;verticalAlign=middle;resizable=0;points=[];autosize=1;strokeColor=none;fillColor=none;" vertex="1" parent="1">
          <mxGeometry x="445" y="-640" width="70" height="30" as="geometry" />
        </mxCell>
        <mxCell id="IeOK_5gqsgPBjZisnjF1-4" value="&lt;b&gt;&lt;font style=&quot;font-size: 14px;&quot;&gt;record on ssd&lt;/font&gt;&lt;/b&gt;" style="text;html=1;align=center;verticalAlign=middle;resizable=0;points=[];autosize=1;strokeColor=none;fillColor=none;" vertex="1" parent="1">
          <mxGeometry x="420" y="520" width="120" height="30" as="geometry" />
        </mxCell>
        <mxCell id="IeOK_5gqsgPBjZisnjF1-5" value="&lt;b&gt;&lt;font style=&quot;font-size: 14px;&quot;&gt;gpu_post_process_frame&lt;/font&gt;&lt;/b&gt;" style="text;html=1;align=center;verticalAlign=middle;resizable=0;points=[];autosize=1;strokeColor=none;fillColor=none;" vertex="1" parent="1">
          <mxGeometry x="1726" y="25" width="190" height="30" as="geometry" />
        </mxCell>
        <mxCell id="IeOK_5gqsgPBjZisnjF1-6" value="&lt;b&gt;&lt;font style=&quot;font-size: 14px;&quot;&gt;gpu_accumulation_xy_queue&lt;/font&gt;&lt;/b&gt;" style="text;html=1;align=center;verticalAlign=middle;resizable=0;points=[];autosize=1;strokeColor=none;fillColor=none;" vertex="1" parent="1">
          <mxGeometry x="1716" y="-420" width="220" height="30" as="geometry" />
        </mxCell>
        <mxCell id="IeOK_5gqsgPBjZisnjF1-7" value="&lt;b&gt;&lt;font style=&quot;font-size: 14px;&quot;&gt;gpu_output_frame&lt;/font&gt;&lt;/b&gt;" style="text;html=1;align=center;verticalAlign=middle;resizable=0;points=[];autosize=1;strokeColor=none;fillColor=none;" vertex="1" parent="1">
          <mxGeometry x="2021" y="24" width="150" height="30" as="geometry" />
        </mxCell>
        <mxCell id="IeOK_5gqsgPBjZisnjF1-12" value="" style="endArrow=classic;startArrow=classic;html=1;rounded=0;" edge="1" parent="1">
          <mxGeometry width="50" height="50" relative="1" as="geometry">
            <mxPoint x="520" y="330" as="sourcePoint" />
            <mxPoint x="590" y="260" as="targetPoint" />
          </mxGeometry>
        </mxCell>
        <mxCell id="IeOK_5gqsgPBjZisnjF1-13" value="" style="endArrow=classic;startArrow=classic;html=1;rounded=0;" edge="1" parent="1">
          <mxGeometry width="50" height="50" relative="1" as="geometry">
            <mxPoint x="770" y="60" as="sourcePoint" />
            <mxPoint x="840" y="-10" as="targetPoint" />
          </mxGeometry>
        </mxCell>
        <mxCell id="IeOK_5gqsgPBjZisnjF1-14" value="" style="endArrow=classic;startArrow=classic;html=1;rounded=0;" edge="1" parent="1">
          <mxGeometry width="50" height="50" relative="1" as="geometry">
            <mxPoint x="1120" y="60" as="sourcePoint" />
            <mxPoint x="1190" y="-10" as="targetPoint" />
          </mxGeometry>
        </mxCell>
        <mxCell id="IeOK_5gqsgPBjZisnjF1-15" value="" style="endArrow=classic;startArrow=classic;html=1;rounded=0;" edge="1" parent="1">
          <mxGeometry width="50" height="50" relative="1" as="geometry">
            <mxPoint x="1460" y="60" as="sourcePoint" />
            <mxPoint x="1530" y="-10" as="targetPoint" />
          </mxGeometry>
        </mxCell>
        <mxCell id="IeOK_5gqsgPBjZisnjF1-17" value="" style="endArrow=classic;startArrow=classic;html=1;rounded=0;" edge="1" parent="1">
          <mxGeometry width="50" height="50" relative="1" as="geometry">
            <mxPoint x="1841" y="-230" as="sourcePoint" />
            <mxPoint x="1911" y="-300" as="targetPoint" />
          </mxGeometry>
        </mxCell>
        <mxCell id="IeOK_5gqsgPBjZisnjF1-19" value="" style="endArrow=classic;startArrow=classic;html=1;rounded=0;" edge="1" parent="1">
          <mxGeometry width="50" height="50" relative="1" as="geometry">
            <mxPoint x="520" y="-256" as="sourcePoint" />
            <mxPoint x="590" y="-326" as="targetPoint" />
          </mxGeometry>
        </mxCell>
        <mxCell id="IeOK_5gqsgPBjZisnjF1-21" value="" style="whiteSpace=wrap;html=1;aspect=fixed;" vertex="1" parent="1">
          <mxGeometry x="1070" y="360" width="80" height="80" as="geometry" />
        </mxCell>
        <mxCell id="IeOK_5gqsgPBjZisnjF1-22" value="" style="endArrow=classic;startArrow=classic;html=1;rounded=0;" edge="1" parent="1">
          <mxGeometry width="50" height="50" relative="1" as="geometry">
            <mxPoint x="1060" y="435" as="sourcePoint" />
            <mxPoint x="1060" y="365" as="targetPoint" />
          </mxGeometry>
        </mxCell>
        <mxCell id="IeOK_5gqsgPBjZisnjF1-23" value="" style="endArrow=classic;startArrow=classic;html=1;rounded=0;" edge="1" parent="1">
          <mxGeometry width="50" height="50" relative="1" as="geometry">
            <mxPoint x="1145" y="450" as="sourcePoint" />
            <mxPoint x="1075" y="450" as="targetPoint" />
          </mxGeometry>
        </mxCell>
        <mxCell id="IeOK_5gqsgPBjZisnjF1-24" value="height" style="text;html=1;align=center;verticalAlign=middle;whiteSpace=wrap;rounded=0;" vertex="1" parent="1">
          <mxGeometry x="1000" y="385" width="60" height="30" as="geometry" />
        </mxCell>
        <mxCell id="IeOK_5gqsgPBjZisnjF1-25" value="width" style="text;html=1;align=center;verticalAlign=middle;whiteSpace=wrap;rounded=0;" vertex="1" parent="1">
          <mxGeometry x="1080" y="450" width="60" height="30" as="geometry" />
        </mxCell>
        <mxCell id="IeOK_5gqsgPBjZisnjF1-26" value="&lt;font style=&quot;font-size: 18px;&quot;&gt;Height and width, decided from camera settings, are &lt;b style=&quot;&quot;&gt;constant &lt;/b&gt;through all the pipeline&lt;/font&gt;" style="text;html=1;align=center;verticalAlign=middle;whiteSpace=wrap;rounded=0;" vertex="1" parent="1">
          <mxGeometry x="1150" y="350" width="300" height="100" as="geometry" />
        </mxCell>
        <mxCell id="IeOK_5gqsgPBjZisnjF1-27" value="Batch size" style="text;html=1;align=center;verticalAlign=middle;resizable=0;points=[];autosize=1;strokeColor=none;fillColor=none;rotation=-45;" vertex="1" parent="1">
          <mxGeometry x="776" y="22" width="80" height="30" as="geometry" />
        </mxCell>
        <mxCell id="IeOK_5gqsgPBjZisnjF1-28" value="Output queue size" style="text;html=1;align=center;verticalAlign=middle;resizable=0;points=[];autosize=1;strokeColor=none;fillColor=none;rotation=-45;" vertex="1" parent="1">
          <mxGeometry x="507" y="-296" width="120" height="30" as="geometry" />
        </mxCell>
        <mxCell id="IeOK_5gqsgPBjZisnjF1-29" value="Record queue size" style="text;html=1;align=center;verticalAlign=middle;resizable=0;points=[];autosize=1;strokeColor=none;fillColor=none;rotation=-45;" vertex="1" parent="1">
          <mxGeometry x="510" y="290" width="120" height="30" as="geometry" />
        </mxCell>
        <mxCell id="IeOK_5gqsgPBjZisnjF1-30" value="char" style="shape=cube;whiteSpace=wrap;html=1;boundedLbl=1;backgroundOutline=1;darkOpacity=0.05;darkOpacity2=0.1;direction=south;size=80;" vertex="1" parent="1">
          <mxGeometry x="2042" y="-382" width="150" height="150" as="geometry" />
        </mxCell>
        <mxCell id="IeOK_5gqsgPBjZisnjF1-31" value="&lt;b&gt;&lt;font style=&quot;font-size: 14px;&quot;&gt;output_queue&lt;/font&gt;&lt;/b&gt;" style="text;html=1;align=center;verticalAlign=middle;resizable=0;points=[];autosize=1;strokeColor=none;fillColor=none;" vertex="1" parent="1">
          <mxGeometry x="2051" y="-420" width="120" height="30" as="geometry" />
        </mxCell>
        <mxCell id="IeOK_5gqsgPBjZisnjF1-32" value="" style="endArrow=classic;startArrow=classic;html=1;rounded=0;" edge="1" parent="1">
          <mxGeometry width="50" height="50" relative="1" as="geometry">
            <mxPoint x="2132" y="-232" as="sourcePoint" />
            <mxPoint x="2202" y="-302" as="targetPoint" />
          </mxGeometry>
        </mxCell>
        <mxCell id="IeOK_5gqsgPBjZisnjF1-33" value="Output queue size" style="text;html=1;align=center;verticalAlign=middle;resizable=0;points=[];autosize=1;strokeColor=none;fillColor=none;rotation=-45;" vertex="1" parent="1">
          <mxGeometry x="2119" y="-272" width="120" height="30" as="geometry" />
        </mxCell>
        <mxCell id="IeOK_5gqsgPBjZisnjF1-34" value="char" style="shape=cube;whiteSpace=wrap;html=1;boundedLbl=1;backgroundOutline=1;darkOpacity=0.05;darkOpacity2=0.1;direction=south;size=80;" vertex="1" parent="1">
          <mxGeometry x="2051" y="190" width="150" height="150" as="geometry" />
        </mxCell>
        <mxCell id="IeOK_5gqsgPBjZisnjF1-35" value="&lt;b&gt;&lt;font style=&quot;font-size: 14px;&quot;&gt;record_queue&lt;/font&gt;&lt;/b&gt;" style="text;html=1;align=center;verticalAlign=middle;resizable=0;points=[];autosize=1;strokeColor=none;fillColor=none;" vertex="1" parent="1">
          <mxGeometry x="1931" y="210" width="120" height="30" as="geometry" />
        </mxCell>
        <mxCell id="IeOK_5gqsgPBjZisnjF1-36" value="" style="endArrow=classic;startArrow=classic;html=1;rounded=0;" edge="1" parent="1">
          <mxGeometry width="50" height="50" relative="1" as="geometry">
            <mxPoint x="2141" y="340" as="sourcePoint" />
            <mxPoint x="2211" y="270" as="targetPoint" />
          </mxGeometry>
        </mxCell>
        <mxCell id="IeOK_5gqsgPBjZisnjF1-37" value="Record queue size" style="text;html=1;align=center;verticalAlign=middle;resizable=0;points=[];autosize=1;strokeColor=none;fillColor=none;rotation=-45;" vertex="1" parent="1">
          <mxGeometry x="2131" y="300" width="120" height="30" as="geometry" />
        </mxCell>
        <mxCell id="IeOK_5gqsgPBjZisnjF1-38" value="Time_transformation_size" style="text;html=1;align=center;verticalAlign=middle;resizable=0;points=[];autosize=1;strokeColor=none;fillColor=none;rotation=-45;" vertex="1" parent="1">
          <mxGeometry x="1090" y="25" width="160" height="30" as="geometry" />
        </mxCell>
        <mxCell id="IeOK_5gqsgPBjZisnjF1-39" value="Time_transformation_size" style="text;html=1;align=center;verticalAlign=middle;resizable=0;points=[];autosize=1;strokeColor=none;fillColor=none;rotation=-45;" vertex="1" parent="1">
          <mxGeometry x="1429" y="27" width="160" height="30" as="geometry" />
        </mxCell>
        <mxCell id="IeOK_5gqsgPBjZisnjF1-40" value="output_image&lt;div&gt;_accumulation&lt;/div&gt;" style="text;html=1;align=center;verticalAlign=middle;resizable=0;points=[];autosize=1;strokeColor=none;fillColor=none;rotation=-45;" vertex="1" parent="1">
          <mxGeometry x="1836" y="-266" width="100" height="40" as="geometry" />
        </mxCell>
        <mxCell id="IeOK_5gqsgPBjZisnjF1-41" value="" style="verticalLabelPosition=bottom;html=1;verticalAlign=top;align=center;strokeColor=#000000;fillColor=#000000;shape=mxgraph.azure.computer;pointerEvents=1;" vertex="1" parent="1">
          <mxGeometry x="2066" y="-605" width="50" height="45" as="geometry" />
        </mxCell>
        <mxCell id="IeOK_5gqsgPBjZisnjF1-42" value="" style="shape=flexArrow;endArrow=classic;html=1;rounded=0;" edge="1" parent="1">
          <mxGeometry width="50" height="50" relative="1" as="geometry">
            <mxPoint x="2090.38" y="-428" as="sourcePoint" />
            <mxPoint x="2090.38" y="-538" as="targetPoint" />
          </mxGeometry>
        </mxCell>
        <mxCell id="IeOK_5gqsgPBjZisnjF1-43" value="&lt;b&gt;&lt;font style=&quot;font-size: 14px;&quot;&gt;display&lt;/font&gt;&lt;/b&gt;" style="text;html=1;align=center;verticalAlign=middle;resizable=0;points=[];autosize=1;strokeColor=none;fillColor=none;" vertex="1" parent="1">
          <mxGeometry x="2056" y="-640" width="70" height="30" as="geometry" />
        </mxCell>
        <mxCell id="IeOK_5gqsgPBjZisnjF1-44" value="" style="sketch=0;pointerEvents=1;shadow=0;dashed=0;html=1;strokeColor=none;fillColor=#505050;labelPosition=center;verticalLabelPosition=bottom;verticalAlign=top;outlineConnect=0;align=center;shape=mxgraph.office.devices.hard_disk;" vertex="1" parent="1">
          <mxGeometry x="2071" y="477" width="40" height="54" as="geometry" />
        </mxCell>
        <mxCell id="IeOK_5gqsgPBjZisnjF1-45" value="" style="shape=flexArrow;endArrow=classic;html=1;rounded=0;" edge="1" parent="1">
          <mxGeometry width="50" height="50" relative="1" as="geometry">
            <mxPoint x="2090.75" y="360" as="sourcePoint" />
            <mxPoint x="2090.75" y="465.38" as="targetPoint" />
          </mxGeometry>
        </mxCell>
        <mxCell id="IeOK_5gqsgPBjZisnjF1-46" value="&lt;b&gt;&lt;font style=&quot;font-size: 14px;&quot;&gt;record on ssd&lt;/font&gt;&lt;/b&gt;" style="text;html=1;align=center;verticalAlign=middle;resizable=0;points=[];autosize=1;strokeColor=none;fillColor=none;" vertex="1" parent="1">
          <mxGeometry x="2031" y="537" width="120" height="30" as="geometry" />
        </mxCell>
        <mxCell id="IeOK_5gqsgPBjZisnjF1-47" value="If image_mode == Raw" style="text;html=1;align=center;verticalAlign=middle;whiteSpace=wrap;rounded=0;" vertex="1" parent="1">
          <mxGeometry x="490" y="-190" width="160" height="30" as="geometry" />
        </mxCell>
        <mxCell id="IeOK_5gqsgPBjZisnjF1-48" value="If record_mode == Raw" style="text;html=1;align=center;verticalAlign=middle;whiteSpace=wrap;rounded=0;" vertex="1" parent="1">
          <mxGeometry x="487" y="100" width="160" height="30" as="geometry" />
        </mxCell>
        <mxCell id="IeOK_5gqsgPBjZisnjF1-49" value="If image_mode == Processed" style="text;html=1;align=center;verticalAlign=middle;whiteSpace=wrap;rounded=0;" vertex="1" parent="1">
          <mxGeometry x="2116" y="-155" width="160" height="30" as="geometry" />
        </mxCell>
        <mxCell id="IeOK_5gqsgPBjZisnjF1-50" value="If record_mode == Processed" style="text;html=1;align=center;verticalAlign=middle;whiteSpace=wrap;rounded=0;" vertex="1" parent="1">
          <mxGeometry x="2111" y="110" width="170" height="30" as="geometry" />
        </mxCell>
        <mxCell id="IeOK_5gqsgPBjZisnjF1-53" value="skip $$ \frac{timestride - batchsize}{batchsize} $$ batches" style="text;html=1;align=center;verticalAlign=middle;resizable=0;points=[];autosize=1;strokeColor=none;fillColor=none;" vertex="1" parent="1">
          <mxGeometry x="627" y="250" width="330" height="30" as="geometry" />
        </mxCell>
        <mxCell id="IeOK_5gqsgPBjZisnjF1-57" value="if time_stride == batch_size, all frames are processed" style="text;html=1;align=center;verticalAlign=middle;whiteSpace=wrap;rounded=0;" vertex="1" parent="1">
          <mxGeometry x="927" y="240" width="223" height="30" as="geometry" />
        </mxCell>
        <mxCell id="IeOK_5gqsgPBjZisnjF1-58" value="" style="endArrow=classic;html=1;rounded=0;" edge="1" parent="1">
          <mxGeometry width="50" height="50" relative="1" as="geometry">
            <mxPoint x="890" y="254.47" as="sourcePoint" />
            <mxPoint x="920" y="253" as="targetPoint" />
          </mxGeometry>
        </mxCell>
        <mxCell id="IeOK_5gqsgPBjZisnjF1-59" value="&lt;font style=&quot;font-size: 48px;&quot;&gt;Queues &amp;amp; buffers flowchart&lt;/font&gt;" style="text;html=1;align=center;verticalAlign=middle;whiteSpace=wrap;rounded=0;" vertex="1" parent="1">
          <mxGeometry x="950" y="-680" width="560" height="330" as="geometry" />
        </mxCell>
        <mxCell id="IeOK_5gqsgPBjZisnjF1-61" value="" style="shape=cube;whiteSpace=wrap;html=1;boundedLbl=1;backgroundOutline=1;darkOpacity=0.05;darkOpacity2=0.1;direction=south;strokeColor=#CC0000;size=40;fillColor=#CCE5FF;" vertex="1" parent="1">
          <mxGeometry x="1390" y="-70" width="110" height="110" as="geometry" />
        </mxCell>
        <mxCell id="I3avih-Nlc-Vhzq-aTG8-21" value="&lt;font color=&quot;#cc0000&quot;&gt;complex&lt;/font&gt;" style="shape=cube;whiteSpace=wrap;html=1;boundedLbl=1;backgroundOutline=1;darkOpacity=0.05;darkOpacity2=0.1;direction=south;size=20;strokeColor=#CC0000;" vertex="1" parent="1">
          <mxGeometry x="1370" y="-30" width="90" height="90" as="geometry" />
        </mxCell>
        <mxCell id="IeOK_5gqsgPBjZisnjF1-64" value="&lt;font style=&quot;&quot; color=&quot;#66b2ff&quot;&gt;&lt;b&gt;p&lt;/b&gt;&lt;/font&gt;" style="text;html=1;align=center;verticalAlign=middle;whiteSpace=wrap;rounded=0;" vertex="1" parent="1">
          <mxGeometry x="1339" y="-64.62" width="60" height="30" as="geometry" />
        </mxCell>
        <mxCell id="IeOK_5gqsgPBjZisnjF1-65" value="&lt;font style=&quot;&quot; color=&quot;#66b2ff&quot;&gt;&lt;b&gt;p + p acc&lt;/b&gt;&lt;/font&gt;" style="text;html=1;align=center;verticalAlign=middle;whiteSpace=wrap;rounded=0;" vertex="1" parent="1">
          <mxGeometry x="1360" y="-90" width="60" height="30" as="geometry" />
        </mxCell>
        <mxCell id="IeOK_5gqsgPBjZisnjF1-67" value="" style="curved=1;endArrow=classic;html=1;rounded=0;exitX=0.309;exitY=0.014;exitDx=0;exitDy=0;exitPerimeter=0;entryX=0.705;entryY=0.157;entryDx=0;entryDy=0;entryPerimeter=0;" edge="1" parent="1" source="I3avih-Nlc-Vhzq-aTG8-41" target="I3avih-Nlc-Vhzq-aTG8-41">
          <mxGeometry width="50" height="50" relative="1" as="geometry">
            <mxPoint x="1140" y="-30" as="sourcePoint" />
            <mxPoint x="1190" y="-80" as="targetPoint" />
            <Array as="points">
              <mxPoint x="660" y="-230" />
              <mxPoint x="850" y="-230" />
            </Array>
          </mxGeometry>
        </mxCell>
        <mxCell id="IeOK_5gqsgPBjZisnjF1-68" value="&lt;b&gt;space transformation&lt;/b&gt; (Angular spectrum, Fresnel) inplace" style="text;html=1;align=center;verticalAlign=middle;whiteSpace=wrap;rounded=0;" vertex="1" parent="1">
          <mxGeometry x="670" y="-280" width="160" height="40" as="geometry" />
        </mxCell>
        <mxCell id="IeOK_5gqsgPBjZisnjF1-69" value="&lt;b&gt;time transformation&lt;/b&gt; (STFT, PCA)" style="text;html=1;align=center;verticalAlign=middle;whiteSpace=wrap;rounded=0;" vertex="1" parent="1">
          <mxGeometry x="1195" y="-64.62" width="144" height="30" as="geometry" />
        </mxCell>
        <mxCell id="IeOK_5gqsgPBjZisnjF1-70" value="&lt;span style=&quot;color: rgb(0, 0, 0); font-family: Helvetica; font-size: 12px; font-style: normal; font-variant-ligatures: normal; font-variant-caps: normal; letter-spacing: normal; orphans: 2; text-indent: 0px; text-transform: none; widows: 2; word-spacing: 0px; -webkit-text-stroke-width: 0px; white-space: normal; background-color: rgb(251, 251, 251); text-decoration-thickness: initial; text-decoration-style: initial; text-decoration-color: initial; float: none; display: inline !important;&quot;&gt;&lt;b&gt;float conversion (&lt;/b&gt;&lt;/span&gt;&lt;span style=&quot;background-color: initial;&quot;&gt;modulus,&amp;nbsp;&lt;/span&gt;&lt;span style=&quot;background-color: initial;&quot;&gt;composite,&amp;nbsp;&lt;/span&gt;&lt;span style=&quot;background-color: initial;&quot;&gt;argument)&lt;/span&gt;&lt;div&gt;&lt;span style=&quot;color: rgb(0, 0, 0); font-family: Helvetica; font-size: 12px; font-style: normal; font-variant-ligatures: normal; font-variant-caps: normal; font-weight: 400; letter-spacing: normal; orphans: 2; text-indent: 0px; text-transform: none; widows: 2; word-spacing: 0px; -webkit-text-stroke-width: 0px; white-space: normal; background-color: rgb(251, 251, 251); text-decoration-thickness: initial; text-decoration-style: initial; text-decoration-color: initial; float: none; display: inline !important;&quot;&gt;+ average of selected freqs&lt;/span&gt;&lt;/div&gt;" style="text;whiteSpace=wrap;html=1;align=left;" vertex="1" parent="1">
          <mxGeometry x="1561" y="-90" width="180" height="55" as="geometry" />
        </mxCell>
        <mxCell id="IeOK_5gqsgPBjZisnjF1-71" value="accumulate" style="text;html=1;align=center;verticalAlign=middle;whiteSpace=wrap;rounded=0;" vertex="1" parent="1">
          <mxGeometry x="1741" y="-160" width="60" height="30" as="geometry" />
        </mxCell>
        <mxCell id="IeOK_5gqsgPBjZisnjF1-72" value="compute average" style="text;html=1;align=center;verticalAlign=middle;whiteSpace=wrap;rounded=0;" vertex="1" parent="1">
          <mxGeometry x="1982" y="-190" width="60" height="30" as="geometry" />
        </mxCell>
        <mxCell id="IeOK_5gqsgPBjZisnjF1-73" value="complex conversion" style="text;html=1;align=center;verticalAlign=middle;whiteSpace=wrap;rounded=0;" vertex="1" parent="1">
          <mxGeometry x="530" y="-60.00000000000001" width="144" height="30" as="geometry" />
        </mxCell>
        <mxCell id="IeOK_5gqsgPBjZisnjF1-74" value="float to ushort" style="text;html=1;align=center;verticalAlign=middle;whiteSpace=wrap;rounded=0;" vertex="1" parent="1">
          <mxGeometry x="1910" y="-20" width="89" height="30" as="geometry" />
        </mxCell>
      </root>
    </mxGraphModel>
  </diagram>
</mxfile>
